<svg viewBox="0 0 200 100" fill="none" xmlns="http://www.w3.org/2000/svg">
<path d="M3.444 13.684H17.01C18.214 13.684 19.292 13.866 20.244 14.23C21.224 14.594 22.05 15.098 22.722 15.742C23.394 16.386 23.898 17.184 24.234 18.136C24.598 19.06 24.78 20.082 24.78 21.202C24.78 22.322 24.626 23.274 24.318 24.058C24.038 24.814 23.646 25.444 23.142 25.948C22.666 26.452 22.106 26.83 21.462 27.082C20.846 27.334 20.202 27.474 19.53 27.502V27.754C20.174 27.754 20.86 27.88 21.588 28.132C22.344 28.384 23.03 28.79 23.646 29.35C24.29 29.882 24.822 30.582 25.242 31.45C25.662 32.29 25.872 33.34 25.872 34.6C25.872 35.776 25.676 36.882 25.284 37.918C24.92 38.926 24.402 39.808 23.73 40.564C23.058 41.32 22.26 41.922 21.336 42.37C20.412 42.79 19.404 43 18.312 43H3.444V13.684ZM8.988 38.296H16.716C17.78 38.296 18.606 38.03 19.194 37.498C19.782 36.938 20.076 36.14 20.076 35.104V33.676C20.076 32.64 19.782 31.842 19.194 31.282C18.606 30.722 17.78 30.442 16.716 30.442H8.988V38.296ZM8.988 25.906H15.834C16.842 25.906 17.626 25.64 18.186 25.108C18.746 24.548 19.026 23.778 19.026 22.798V21.496C19.026 20.516 18.746 19.76 18.186 19.228C17.626 18.668 16.842 18.388 15.834 18.388H8.988V25.906ZM33.6456 17.884C32.5256 17.884 31.7136 17.632 31.2096 17.128C30.7336 16.624 30.4956 15.98 30.4956 15.196V14.356C30.4956 13.572 30.7336 12.928 31.2096 12.424C31.7136 11.92 32.5256 11.668 33.6456 11.668C34.7376 11.668 35.5356 11.92 36.0396 12.424C36.5436 12.928 36.7956 13.572 36.7956 14.356V15.196C36.7956 15.98 36.5436 16.624 36.0396 17.128C35.5356 17.632 34.7376 17.884 33.6456 17.884ZM30.9576 21.076H36.3336V43H30.9576V21.076ZM42.565 43V21.076H47.941V24.73H48.151C48.599 23.554 49.299 22.574 50.251 21.79C51.231 20.978 52.575 20.572 54.283 20.572C56.551 20.572 58.287 21.314 59.491 22.798C60.695 24.282 61.297 26.396 61.297 29.14V43H55.921V29.686C55.921 28.118 55.641 26.942 55.081 26.158C54.521 25.374 53.597 24.982 52.309 24.982C51.749 24.982 51.203 25.066 50.671 25.234C50.167 25.374 49.705 25.598 49.285 25.906C48.893 26.186 48.571 26.55 48.319 26.998C48.067 27.418 47.941 27.922 47.941 28.51V43H42.565ZM83.3844 43C82.2084 43 81.2704 42.664 80.5704 41.992C79.8984 41.292 79.4784 40.368 79.3104 39.22H79.0584C78.6944 40.648 77.9524 41.726 76.8324 42.454C75.7124 43.154 74.3264 43.504 72.6744 43.504C70.4344 43.504 68.7124 42.916 67.5084 41.74C66.3044 40.564 65.7024 38.996 65.7024 37.036C65.7024 34.768 66.5144 33.088 68.1384 31.996C69.7624 30.876 72.0724 30.316 75.0684 30.316H78.8064V28.72C78.8064 27.488 78.4844 26.536 77.8404 25.864C77.1964 25.192 76.1604 24.856 74.7324 24.856C73.4724 24.856 72.4504 25.136 71.6664 25.696C70.9104 26.228 70.2664 26.872 69.7344 27.628L66.5424 24.772C67.3544 23.512 68.4324 22.504 69.7764 21.748C71.1204 20.964 72.8984 20.572 75.1104 20.572C78.0784 20.572 80.3324 21.244 81.8724 22.588C83.4124 23.932 84.1824 25.864 84.1824 28.384V38.716H86.3664V43H83.3844ZM74.4804 39.598C75.6844 39.598 76.7064 39.332 77.5464 38.8C78.3864 38.268 78.8064 37.484 78.8064 36.448V33.55H75.3624C72.5624 33.55 71.1624 34.446 71.1624 36.238V36.952C71.1624 37.848 71.4424 38.52 72.0024 38.968C72.5904 39.388 73.4164 39.598 74.4804 39.598ZM90.7174 43V21.076H96.0934V25.612H96.3034C96.4434 25.024 96.6534 24.464 96.9334 23.932C97.2414 23.372 97.6334 22.882 98.1094 22.462C98.5854 22.042 99.1454 21.706 99.7894 21.454C100.461 21.202 101.231 21.076 102.099 21.076H103.275V26.158H101.595C99.7754 26.158 98.4034 26.424 97.4794 26.956C96.5554 27.488 96.0934 28.356 96.0934 29.56V43H90.7174ZM120.974 21.076H126.014L117.194 46.906C116.914 47.69 116.592 48.362 116.228 48.922C115.892 49.51 115.486 49.986 115.01 50.35C114.534 50.714 113.96 50.98 113.288 51.148C112.616 51.316 111.832 51.4 110.936 51.4H107.702V47.116H111.65L112.658 44.05L104.804 21.076H110.138L113.96 32.668L115.388 38.212H115.64L117.152 32.668L120.974 21.076Z" fill="black"/>
<path d="M9.776 96.1053L1.352 59.8093H8.216L11.804 77.2293L14.04 88.3573H14.196L16.796 77.2293L20.956 59.8093H28.548L32.708 77.2293L35.256 88.3573H35.412L37.7 77.2293L41.392 59.8093H47.944L39.26 96.1053H31.512L26.884 76.9173L24.648 67.3493H24.544L22.204 76.9173L17.576 96.1053H9.776ZM56.5354 65.0093C55.1487 65.0093 54.1434 64.6973 53.5194 64.0733C52.93 63.4493 52.6354 62.6519 52.6354 61.6813V60.6413C52.6354 59.6706 52.93 58.8733 53.5194 58.2493C54.1434 57.6253 55.1487 57.3133 56.5354 57.3133C57.8874 57.3133 58.8754 57.6253 59.4994 58.2493C60.1234 58.8733 60.4354 59.6706 60.4354 60.6413V61.6813C60.4354 62.6519 60.1234 63.4493 59.4994 64.0733C58.8754 64.6973 57.8874 65.0093 56.5354 65.0093ZM53.2074 68.9613H59.8634V96.1053H53.2074V68.9613ZM67.5785 96.1053V68.9613H74.2345V73.4853H74.4945C75.0491 72.0293 75.9158 70.8159 77.0945 69.8453C78.3078 68.8399 79.9718 68.3373 82.0865 68.3373C84.8945 68.3373 87.0438 69.2559 88.5345 71.0933C90.0251 72.9306 90.7705 75.5479 90.7705 78.9453V96.1053H84.1145V79.6213C84.1145 77.6799 83.7678 76.2239 83.0745 75.2533C82.3811 74.2826 81.2371 73.7973 79.6425 73.7973C78.9491 73.7973 78.2731 73.9013 77.6145 74.1093C76.9905 74.2826 76.4185 74.5599 75.8985 74.9413C75.4131 75.2879 75.0145 75.7386 74.7025 76.2933C74.3905 76.8133 74.2345 77.4373 74.2345 78.1653V96.1053H67.5785ZM114.997 91.5813H114.737C114.251 93.1413 113.333 94.3893 111.981 95.3253C110.629 96.2613 109.051 96.7293 107.249 96.7293C103.817 96.7293 101.182 95.4986 99.3448 93.0373C97.5421 90.5759 96.6408 87.0573 96.6408 82.4813C96.6408 77.9399 97.5421 74.4559 99.3448 72.0293C101.182 69.5679 103.817 68.3373 107.249 68.3373C109.051 68.3373 110.629 68.8053 111.981 69.7413C113.333 70.6426 114.251 71.8733 114.737 73.4333H114.997V57.6253H121.653V96.1053H114.997V91.5813ZM109.381 91.2173C110.975 91.2173 112.31 90.8359 113.385 90.0733C114.459 89.3106 114.997 88.2186 114.997 86.7973V78.1653C114.997 76.8479 114.459 75.7906 113.385 74.9933C112.31 74.1959 110.975 73.7973 109.381 73.7973C107.647 73.7973 106.243 74.3866 105.169 75.5653C104.129 76.7093 103.609 78.2519 103.609 80.1933V84.8733C103.609 86.8146 104.129 88.3573 105.169 89.5013C106.243 90.6453 107.647 91.2173 109.381 91.2173ZM140.092 96.7293C138.151 96.7293 136.4 96.3999 134.84 95.7413C133.315 95.0826 131.998 94.1293 130.888 92.8813C129.814 91.6333 128.982 90.1426 128.392 88.4093C127.803 86.6413 127.508 84.6653 127.508 82.4813C127.508 80.2973 127.803 78.3386 128.392 76.6053C128.982 74.8719 129.814 73.3986 130.888 72.1853C131.998 70.9373 133.315 69.9839 134.84 69.3253C136.4 68.6666 138.151 68.3373 140.092 68.3373C142.034 68.3373 143.784 68.6666 145.344 69.3253C146.904 69.9839 148.222 70.9373 149.296 72.1853C150.406 73.3986 151.255 74.8719 151.844 76.6053C152.434 78.3386 152.728 80.2973 152.728 82.4813C152.728 84.6653 152.434 86.6413 151.844 88.4093C151.255 90.1426 150.406 91.6333 149.296 92.8813C148.222 94.1293 146.904 95.0826 145.344 95.7413C143.784 96.3999 142.034 96.7293 140.092 96.7293ZM140.092 91.3733C141.86 91.3733 143.247 90.8359 144.252 89.7613C145.258 88.6866 145.76 87.1093 145.76 85.0293V79.9853C145.76 77.9399 145.258 76.3799 144.252 75.3053C143.247 74.2306 141.86 73.6933 140.092 73.6933C138.359 73.6933 136.99 74.2306 135.984 75.3053C134.979 76.3799 134.476 77.9399 134.476 79.9853V85.0293C134.476 87.1093 134.979 88.6866 135.984 89.7613C136.99 90.8359 138.359 91.3733 140.092 91.3733ZM155.52 68.9613H161.916L164.672 80.1413L166.804 89.4493H167.012L169.508 80.1413L172.68 68.9613H178.712L181.988 80.1413L184.536 89.4493H184.744L186.876 80.1413L189.58 68.9613H195.768L188.332 96.1053H181.156L177.672 84.1453L175.644 76.7613H175.488L173.512 84.1453L170.08 96.1053H163.008L155.52 68.9613Z" fill="black"/>
<rect x="139.25" y="7.25" width="22.5102" height="24.5" stroke="black" stroke-width="4.5"/>
<rect x="170.24" y="7.25" width="22.5102" height="24.5" stroke="black" stroke-width="4.5"/>
</svg>
