<svg viewBox="0 0 200 100" fill="none" xmlns="http://www.w3.org/2000/svg">
<path d="M1.89 42V12.6H13.44C15.484 12.6 17.192 12.922 18.564 13.566C19.964 14.21 21.014 15.106 21.714 16.254C22.442 17.374 22.806 18.676 22.806 20.16C22.806 21.644 22.484 22.89 21.84 23.898C21.196 24.906 20.342 25.676 19.278 26.208C18.214 26.74 17.066 27.062 15.834 27.174L16.506 26.712C17.822 26.74 18.998 27.09 20.034 27.762C21.098 28.434 21.938 29.316 22.554 30.408C23.17 31.472 23.478 32.662 23.478 33.978C23.478 35.518 23.1 36.904 22.344 38.136C21.588 39.34 20.496 40.292 19.068 40.992C17.64 41.664 15.89 42 13.818 42H1.89ZM6.93 37.884H13.104C14.756 37.884 16.044 37.492 16.968 36.708C17.892 35.924 18.354 34.832 18.354 33.432C18.354 32.032 17.878 30.926 16.926 30.114C15.974 29.274 14.672 28.854 13.02 28.854H6.93V37.884ZM6.93 25.032H12.726C14.322 25.032 15.54 24.668 16.38 23.94C17.22 23.184 17.64 22.148 17.64 20.832C17.64 19.544 17.22 18.536 16.38 17.808C15.54 17.052 14.294 16.674 12.642 16.674H6.93V25.032ZM27.0844 42V21.168H32.1244V42H27.0844ZM29.6044 18.102C28.6804 18.102 27.9104 17.822 27.2944 17.262C26.7064 16.674 26.4124 15.946 26.4124 15.078C26.4124 14.238 26.7064 13.538 27.2944 12.978C27.9104 12.39 28.6804 12.096 29.6044 12.096C30.5284 12.096 31.2984 12.39 31.9144 12.978C32.5304 13.538 32.8384 14.252 32.8384 15.12C32.8384 15.96 32.5304 16.674 31.9144 17.262C31.2984 17.822 30.5284 18.102 29.6044 18.102ZM36.2152 42V21.168H40.5412L40.9612 24.528H41.1292C41.8292 23.324 42.7532 22.386 43.9012 21.714C45.0772 21.014 46.5192 20.664 48.2272 20.664C49.9072 20.664 51.3492 21.028 52.5532 21.756C53.7572 22.456 54.6812 23.52 55.3252 24.948C55.9692 26.348 56.2912 28.084 56.2912 30.156V42H51.2932V30.66C51.2932 28.812 50.9012 27.398 50.1172 26.418C49.3612 25.41 48.1852 24.906 46.5892 24.906C45.5532 24.906 44.6292 25.158 43.8172 25.662C43.0332 26.166 42.4032 26.894 41.9272 27.846C41.4792 28.77 41.2552 29.904 41.2552 31.248V42H36.2152ZM66.276 42.504C64.624 42.504 63.252 42.224 62.16 41.664C61.096 41.076 60.298 40.306 59.766 39.354C59.262 38.374 59.01 37.31 59.01 36.162C59.01 34.846 59.346 33.712 60.018 32.76C60.718 31.78 61.74 31.024 63.084 30.492C64.428 29.932 66.094 29.652 68.082 29.652H73.416C73.416 28.504 73.248 27.566 72.912 26.838C72.604 26.082 72.114 25.536 71.442 25.2C70.798 24.836 69.986 24.654 69.006 24.654C67.858 24.654 66.85 24.934 65.982 25.494C65.142 26.026 64.638 26.866 64.47 28.014H59.514C59.654 26.502 60.144 25.2 60.984 24.108C61.824 23.016 62.93 22.176 64.302 21.588C65.702 20.972 67.284 20.664 69.048 20.664C71.036 20.664 72.73 21.014 74.13 21.714C75.558 22.386 76.636 23.352 77.364 24.612C78.092 25.872 78.456 27.398 78.456 29.19V42H74.298L73.752 38.64H73.584C73.192 39.312 72.73 39.886 72.198 40.362C71.666 40.838 71.092 41.23 70.476 41.538C69.888 41.846 69.23 42.084 68.502 42.252C67.802 42.42 67.06 42.504 66.276 42.504ZM67.83 38.514C68.67 38.514 69.412 38.374 70.056 38.094C70.728 37.786 71.288 37.366 71.736 36.834C72.184 36.302 72.534 35.7 72.786 35.028C73.066 34.356 73.234 33.642 73.29 32.886H68.628C67.62 32.886 66.794 33.012 66.15 33.264C65.506 33.516 65.03 33.866 64.722 34.314C64.442 34.734 64.302 35.224 64.302 35.784C64.302 36.372 64.442 36.876 64.722 37.296C65.03 37.688 65.436 37.996 65.94 38.22C66.472 38.416 67.102 38.514 67.83 38.514ZM81.6195 42V21.168H85.9455L86.3655 25.704H86.5335C87.1775 24.248 87.8495 23.156 88.5495 22.428C89.2775 21.7 90.1035 21.224 91.0275 21C91.9515 20.776 93.0295 20.664 94.2615 20.664V25.956H92.9175C91.9095 25.956 90.9995 26.082 90.1875 26.334C89.4035 26.586 88.7455 26.964 88.2135 27.468C87.7095 27.944 87.3175 28.574 87.0375 29.358C86.7855 30.114 86.6595 31.038 86.6595 32.13V42H81.6195ZM99.541 50.4L104.329 39.648H103.153L94.669 21.168H100.129L106.429 35.406H106.597L112.477 21.168H117.811L104.875 50.4H99.541Z" fill="black"/>
<path d="M8.944 94.1053L0.26 57.7053H6.812L13.832 90.0493H14.04L21.996 57.7053H29.276L37.544 90.0493H37.752L44.408 57.7053H51.012L42.328 94.1053H33.072L25.636 65.3493H25.428L18.252 94.1053H8.944ZM54.2011 94.1053V68.3133H60.4411V94.1053H54.2011ZM57.3211 64.5173C56.1771 64.5173 55.2237 64.1706 54.4611 63.4773C53.7331 62.7493 53.3691 61.8479 53.3691 60.7733C53.3691 59.7333 53.7331 58.8666 54.4611 58.1733C55.2237 57.4453 56.1771 57.0813 57.3211 57.0813C58.4651 57.0813 59.4184 57.4453 60.1811 58.1733C60.9437 58.8666 61.3251 59.7506 61.3251 60.8253C61.3251 61.8653 60.9437 62.7493 60.1811 63.4773C59.4184 64.1706 58.4651 64.5173 57.3211 64.5173ZM65.5058 94.1053V68.3133H70.8618L71.3818 72.4733H71.5898C72.4564 70.9826 73.6004 69.8213 75.0218 68.9893C76.4778 68.1226 78.2631 67.6893 80.3778 67.6893C82.4578 67.6893 84.2431 68.1399 85.7338 69.0413C87.2244 69.9079 88.3684 71.2253 89.1658 72.9933C89.9631 74.7266 90.3618 76.8759 90.3618 79.4413V94.1053H84.1738V80.0653C84.1738 77.7773 83.6884 76.0266 82.7178 74.8133C81.7818 73.5653 80.3258 72.9413 78.3498 72.9413C77.0671 72.9413 75.9231 73.2533 74.9178 73.8773C73.9471 74.5013 73.1671 75.4026 72.5778 76.5813C72.0231 77.7253 71.7458 79.1293 71.7458 80.7933V94.1053H65.5058ZM105.584 94.7293C103.123 94.7293 100.973 94.1399 99.136 92.9613C97.3333 91.7826 95.9293 90.1879 94.924 88.1773C93.9533 86.1319 93.468 83.8093 93.468 81.2093C93.468 78.6439 93.9533 76.3386 94.924 74.2933C95.9293 72.2479 97.368 70.6359 99.24 69.4573C101.112 68.2786 103.331 67.6893 105.896 67.6893C108.011 67.6893 109.813 68.1053 111.304 68.9373C112.829 69.7693 114.008 70.7746 114.84 71.9533V57.7053H121.08V94.1053H115.88L115.464 89.4253H115.256C114.597 90.5693 113.783 91.5399 112.812 92.3373C111.841 93.0999 110.749 93.6893 109.536 94.1053C108.357 94.5213 107.04 94.7293 105.584 94.7293ZM107.3 89.5293C108.86 89.5293 110.195 89.1826 111.304 88.4893C112.448 87.7613 113.332 86.7733 113.956 85.5253C114.615 84.2773 114.944 82.8213 114.944 81.1573C114.944 79.5279 114.615 78.0893 113.956 76.8413C113.332 75.5933 112.448 74.6226 111.304 73.9293C110.195 73.2013 108.86 72.8373 107.3 72.8373C105.809 72.8373 104.492 73.2013 103.348 73.9293C102.204 74.6226 101.32 75.5933 100.696 76.8413C100.072 78.0893 99.76 79.5279 99.76 81.1573C99.76 82.8213 100.072 84.2773 100.696 85.5253C101.32 86.7733 102.204 87.7613 103.348 88.4893C104.492 89.1826 105.809 89.5293 107.3 89.5293ZM137.802 94.7293C135.341 94.7293 133.122 94.1573 131.146 93.0133C129.17 91.8693 127.593 90.2919 126.414 88.2813C125.27 86.2359 124.698 83.8786 124.698 81.2093C124.698 78.5399 125.27 76.1826 126.414 74.1373C127.593 72.0919 129.17 70.5146 131.146 69.4053C133.157 68.2613 135.393 67.6893 137.854 67.6893C140.35 67.6893 142.586 68.2613 144.562 69.4053C146.538 70.5146 148.098 72.0919 149.242 74.1373C150.421 76.1826 151.01 78.5399 151.01 81.2093C151.01 83.8786 150.421 86.2359 149.242 88.2813C148.098 90.2919 146.521 91.8693 144.51 93.0133C142.534 94.1573 140.298 94.7293 137.802 94.7293ZM137.802 89.5813C139.05 89.5813 140.177 89.2693 141.182 88.6453C142.222 88.0213 143.054 87.1026 143.678 85.8893C144.337 84.6413 144.666 83.0813 144.666 81.2093C144.666 79.3373 144.354 77.7773 143.73 76.5293C143.106 75.2813 142.274 74.3626 141.234 73.7733C140.194 73.1493 139.085 72.8373 137.906 72.8373C136.693 72.8373 135.566 73.1493 134.526 73.7733C133.486 74.3626 132.637 75.2813 131.978 76.5293C131.354 77.7773 131.042 79.3373 131.042 81.2093C131.042 83.0813 131.354 84.6413 131.978 85.8893C132.637 87.1026 133.469 88.0213 134.474 88.6453C135.514 89.2693 136.624 89.5813 137.802 89.5813ZM158.451 94.1053L151.639 68.3133H157.827L162.455 89.3213H162.663L167.707 68.3133H174.935L180.083 89.3213H180.291L184.815 68.3133H191.003L184.087 94.1053H176.599L171.399 73.0973H171.191L165.939 94.1053H158.451Z" fill="black"/>
<rect x="137.25" y="7.25" width="22.5102" height="24.5" stroke="black" stroke-width="4.5"/>
<rect x="168.24" y="7.25" width="22.5102" height="24.5" stroke="black" stroke-width="4.5"/>
</svg>
